<svg xmlns="http://www.w3.org/2000/svg" xmlns:xlink="http://www.w3.org/1999/xlink" width="259.5" height="106" viewBox="0 0 259.5 106"><defs><filter id="a" x="25.5" y="23.5" width="234" height="81" filterUnits="userSpaceOnUse"><feOffset input="SourceAlpha"/><feGaussianBlur stdDeviation="1" result="b"/><feFlood flood-opacity="0.502"/><feComposite operator="in" in2="b"/><feComposite in="SourceGraphic"/></filter><linearGradient id="c" x1="0.423" y1="0.087" x2="1.083" y2="1.14" gradientUnits="objectBoundingBox"><stop offset="0" stop-color="#fff"/><stop offset="1" stop-color="#eee" stop-opacity="0.988"/></linearGradient><filter id="d" x="0" y="0" width="106" height="106" filterUnits="userSpaceOnUse"><feOffset input="SourceAlpha"/><feGaussianBlur stdDeviation="1.5" result="e"/><feFlood flood-opacity="0.161"/><feComposite operator="in" in2="e"/><feComposite in="SourceGraphic"/></filter><linearGradient id="f" x1="0.233" y1="0.108" x2="0.815" y2="0.866" gradientUnits="objectBoundingBox"><stop offset="0" stop-color="#55c9f2"/><stop offset="1" stop-color="#4a7bbf"/></linearGradient><filter id="g" x="10" y="11" width="89" height="89" filterUnits="userSpaceOnUse"><feOffset dx="1" dy="2" input="SourceAlpha"/><feGaussianBlur stdDeviation="1.5" result="h"/><feFlood flood-opacity="0.4"/><feComposite operator="in" in2="h"/><feComposite in="SourceGraphic"/></filter><filter id="i"><feOffset dx="2" dy="2" input="SourceAlpha"/><feGaussianBlur stdDeviation="1.5" result="j"/><feFlood flood-opacity="0.49" result="k"/><feComposite operator="out" in="SourceGraphic" in2="j"/><feComposite operator="in" in="k"/><feComposite operator="in" in2="SourceGraphic"/></filter><filter id="l" x="36" y="40" width="36.934" height="30.243" filterUnits="userSpaceOnUse"><feOffset dy="2" input="SourceAlpha"/><feGaussianBlur stdDeviation="1.5" result="m"/><feFlood flood-opacity="0.2"/><feComposite operator="in" in2="m"/><feComposite in="SourceGraphic"/></filter><linearGradient id="n" x1="0.897" y1="0.854" x2="0.025" y2="0.069" gradientUnits="objectBoundingBox"><stop offset="0" stop-color="#55c4ef"/><stop offset="1" stop-color="#4b7ec1"/></linearGradient></defs><g transform="translate(-449.5 -174.5)"><g transform="matrix(1, 0, 0, 1, 449.5, 174.5)" filter="url(#a)"><rect width="228" height="75" rx="25" transform="translate(28.5 26.5)" fill="#54c3ee"/></g><rect width="228" height="75" rx="25" transform="translate(477 200)" fill="url(#c)"/><g transform="matrix(1, 0, 0, 1, 449.5, 174.5)" filter="url(#d)"><circle cx="48.5" cy="48.5" r="48.5" transform="translate(4.5 4.5)" fill="#fff"/></g><g transform="matrix(1, 0, 0, 1, 449.5, 174.5)" filter="url(#g)"><circle cx="40" cy="40" r="40" transform="translate(13.5 13.5)" fill="url(#f)"/></g><g data-type="innerShadowGroup"><g transform="matrix(1, 0, 0, 1, 449.5, 174.5)" filter="url(#i)"><path d="M19.026,51.379a21.973,21.973,0,0,1-3.233-2.038,37.356,37.356,0,0,1-7.757-8C2.859,34.187-1.4,23.372.435,8.777A4.965,4.965,0,0,1,3.656,4.66q4.416-1.529,8.9-2.833A40.079,40.079,0,0,1,21.582,0,40.118,40.118,0,0,1,30.61,1.826q4.48,1.3,8.9,2.833a4.965,4.965,0,0,1,3.22,4.117c1.838,14.6-2.427,25.41-7.6,32.566a37.343,37.343,0,0,1-7.761,8,21.957,21.957,0,0,1-3.233,2.038,6.286,6.286,0,0,1-2.555.782A6.28,6.28,0,0,1,19.026,51.379Z" transform="translate(32 27)" fill="#fff"/></g><path d="M19.026,51.379a21.973,21.973,0,0,1-3.233-2.038,37.356,37.356,0,0,1-7.757-8C2.859,34.187-1.4,23.372.435,8.777A4.965,4.965,0,0,1,3.656,4.66q4.416-1.529,8.9-2.833A40.079,40.079,0,0,1,21.582,0,40.118,40.118,0,0,1,30.61,1.826q4.48,1.3,8.9,2.833a4.965,4.965,0,0,1,3.22,4.117c1.838,14.6-2.427,25.41-7.6,32.566a37.343,37.343,0,0,1-7.761,8,21.957,21.957,0,0,1-3.233,2.038,6.286,6.286,0,0,1-2.555.782A6.28,6.28,0,0,1,19.026,51.379Z" transform="translate(481.5 201.5)" fill="none" stroke="#fff" stroke-width="3"/></g><g transform="translate(490 217)"><g transform="matrix(1, 0, 0, 1, -40.5, -42.5)" filter="url(#l)"><path d="M13.4,24.458,6.828,17.879,4.5,20.1l8.9,8.878L32.434,9.953,30.106,7.734Z" transform="translate(36 34.77)" fill="#fff"/></g></g><path d="M-47.979-15.462h4.266a3.177,3.177,0,0,1,2.484.918,4,4,0,0,1,.846,2.718l.036,7.236a5.9,5.9,0,0,1-.792,3.438A3.048,3.048,0,0,1-43.821,0h-4.158Zm3.654,12.726a.74.74,0,0,0,.846-.828v-7.974a2.825,2.825,0,0,0-.081-.783.521.521,0,0,0-.3-.351,1.839,1.839,0,0,0-.666-.09h-.342V-2.736Zm10.98,2.88q-3.942,0-3.942-4.086V-9.234a4.144,4.144,0,0,1,1.053-2.979,3.8,3.8,0,0,1,2.889-1.107,3.8,3.8,0,0,1,2.889,1.107A4.144,4.144,0,0,1-29.4-9.234v5.292Q-29.4.144-33.345.144Zm0-2.43a.623.623,0,0,0,.558-.27,1.317,1.317,0,0,0,.18-.738V-9.738q0-1.152-.738-1.152t-.738,1.152v6.444a1.316,1.316,0,0,0,.18.738A.623.623,0,0,0-33.345-2.286ZM-22.293.144a3.927,3.927,0,0,1-3.114-1.1,5.032,5.032,0,0,1-.954-3.366V-8.388a8.71,8.71,0,0,1,.369-2.781A2.949,2.949,0,0,1-24.75-12.78a4.6,4.6,0,0,1,2.421-.54,4.168,4.168,0,0,1,2.754.882,3.029,3.029,0,0,1,1.062,2.466v2.016h-3.2V-9.81a1.786,1.786,0,0,0-.144-.8.568.568,0,0,0-.558-.279q-.774,0-.774,1.1V-3.4A1.461,1.461,0,0,0-23-2.637a.619.619,0,0,0,.567.315.623.623,0,0,0,.567-.306A1.387,1.387,0,0,0-21.7-3.42l-.018-2.214h3.2v2.3A3.218,3.218,0,0,1-19.566-.783,3.975,3.975,0,0,1-22.293.144Zm9.4,0a2.194,2.194,0,0,1-2.025-.882,5.045,5.045,0,0,1-.549-2.628v-9.81H-12.3v9.855a1.317,1.317,0,0,0,.171.774.624.624,0,0,0,.531.225.568.568,0,0,0,.612-.4,4.115,4.115,0,0,0,.126-1.161V-4l.018-9.18h3.132V0h-3.15V-1.4a2.9,2.9,0,0,1-.756,1.188A1.955,1.955,0,0,1-12.9.144Zm8.424-13.32H-1.4v1.53a2.259,2.259,0,0,1,.738-1.26A2.323,2.323,0,0,1,.819-13.32a2.5,2.5,0,0,1,1.341.351,1.908,1.908,0,0,1,.8.963,2.869,2.869,0,0,1,.882-1,2.469,2.469,0,0,1,1.35-.315,2.351,2.351,0,0,1,2.151.945,5.132,5.132,0,0,1,.6,2.745L7.911,0H4.743V-9.684q0-1.278-.648-1.278a.67.67,0,0,0-.648.441,2.557,2.557,0,0,0-.2,1.053V0H.1V-9.684a2.847,2.847,0,0,0-.117-.9.475.475,0,0,0-.495-.342.7.7,0,0,0-.684.477,2.975,2.975,0,0,0-.2,1.143V0H-4.473ZM14.841.144A3.5,3.5,0,0,1,11.925-.972a5.3,5.3,0,0,1-.882-3.33V-9.594a3.566,3.566,0,0,1,1.044-2.772A4.164,4.164,0,0,1,15-13.32q3.8,0,3.8,3.726v.954q0,1.44-.036,2.34H14.193v2.556a3.175,3.175,0,0,0,.144,1.071.586.586,0,0,0,.612.387.585.585,0,0,0,.513-.216A1.008,1.008,0,0,0,15.642-3q.027-.279.027-.819V-5.094H18.8v.756A5.313,5.313,0,0,1,17.91-.945,3.766,3.766,0,0,1,14.841.144Zm.828-8.01V-9.558q0-1.422-.7-1.422-.792,0-.792,1.422v1.692Zm6.246-5.31h3.15V-11.5a2.809,2.809,0,0,1,.684-1.314,1.717,1.717,0,0,1,1.3-.5,2.345,2.345,0,0,1,1.971.819,3.717,3.717,0,0,1,.639,2.331V0h-3.1V-9.846a1.491,1.491,0,0,0-.171-.738.567.567,0,0,0-.531-.306.615.615,0,0,0-.639.441,3.7,3.7,0,0,0-.153,1.179V0h-3.15ZM35.595.144a2.24,2.24,0,0,1-1.71-.522,2.469,2.469,0,0,1-.468-1.674v-8.226h-.882v-2.394h.882v-2.79h3.06v2.79h.9v2.394h-.9v7.4a1.721,1.721,0,0,0,.054.5q.054.162.288.162a3.1,3.1,0,0,0,.342-.018q.162-.018.216-.018V-.09q-.27.072-.783.153A6.4,6.4,0,0,1,35.595.144Zm8.586,0q-3.942,0-3.942-4.086V-9.234a4.144,4.144,0,0,1,1.053-2.979,3.8,3.8,0,0,1,2.889-1.107,3.8,3.8,0,0,1,2.889,1.107,4.144,4.144,0,0,1,1.053,2.979v5.292Q48.123.144,44.181.144Zm0-2.43a.623.623,0,0,0,.558-.27,1.317,1.317,0,0,0,.18-.738V-9.738q0-1.152-.738-1.152t-.738,1.152v6.444a1.317,1.317,0,0,0,.18.738A.623.623,0,0,0,44.181-2.286ZM-24.786,24-26.694,8.52h2.952l1.134,10.53L-21.6,8.52h2.952L-20.556,24Zm11.34.144a2.187,2.187,0,0,1-2.1-1.017,6.058,6.058,0,0,1-.567-2.907,5.552,5.552,0,0,1,.4-2.376,2.647,2.647,0,0,1,1.125-1.215,13.654,13.654,0,0,1,2.2-.855l.864-.288v-1.35a1.327,1.327,0,0,0-.207-.8.6.6,0,0,0-.495-.279.556.556,0,0,0-.441.234.974.974,0,0,0-.189.63v.792h-3.06V14.28A3.607,3.607,0,0,1-15,11.508a4.333,4.333,0,0,1,2.961-.828,4.023,4.023,0,0,1,2.664.855,2.976,2.976,0,0,1,1.026,2.421V24h-3.132V22.434a2.578,2.578,0,0,1-.747,1.26A1.782,1.782,0,0,1-13.446,24.144ZM-12.2,21.7a.532.532,0,0,0,.513-.3,1.578,1.578,0,0,0,.153-.729V17a2.4,2.4,0,0,0-1.035.684,1.792,1.792,0,0,0-.333,1.152v1.692Q-12.906,21.7-12.2,21.7Zm-1.944-11.484V8.25l4.176-1.926v3.06ZM-5.166,24V8.448h3.2V24ZM1.26,9.942v-2.2H4.41v2.2ZM1.26,24V10.824H4.41V24Zm8.964.144a2.453,2.453,0,0,1-1.737-.549,2.688,2.688,0,0,1-.774-1.458,11.794,11.794,0,0,1-.189-2.331l.036-5.94a3.566,3.566,0,0,1,.711-2.3,2.421,2.421,0,0,1,2.007-.891,2.225,2.225,0,0,1,1.908.846V8.448h3.15V24h-3.15V22.6a2.6,2.6,0,0,1-.729,1.161A1.851,1.851,0,0,1,10.224,24.144Zm1.206-2.466a.591.591,0,0,0,.612-.459,4.253,4.253,0,0,0,.144-1.233V14.478a2.573,2.573,0,0,0-.162-.972.579.579,0,0,0-.576-.4.6.6,0,0,0-.621.369,2.666,2.666,0,0,0-.153,1v5.544Q10.674,21.678,11.43,21.678Zm10.98,2.466q-3.942,0-3.942-4.086V14.766a4.144,4.144,0,0,1,1.053-2.979A3.8,3.8,0,0,1,22.41,10.68,3.8,3.8,0,0,1,25.3,11.787a4.144,4.144,0,0,1,1.053,2.979v5.292Q26.352,24.144,22.41,24.144Zm0-2.43a.623.623,0,0,0,.558-.27,1.316,1.316,0,0,0,.18-.738V14.262q0-1.152-.738-1.152t-.738,1.152v6.444a1.316,1.316,0,0,0,.18.738A.623.623,0,0,0,22.41,21.714Z" transform="translate(615.979 233.462)" fill="url(#n)"/><g transform="translate(49.866 -75)"><path d="M1.134,0V-13.086H8.712a6.821,6.821,0,0,1,2.556.468A5.927,5.927,0,0,1,13.284-11.3a6.018,6.018,0,0,1,1.323,2.025,6.874,6.874,0,0,1,.477,2.6,7.224,7.224,0,0,1-.477,2.646,6.417,6.417,0,0,1-1.323,2.115,6.153,6.153,0,0,1-2.016,1.4A6.3,6.3,0,0,1,8.712,0ZM8.712-2.286a4.05,4.05,0,0,0,1.629-.324,4,4,0,0,0,1.3-.891,4,4,0,0,0,.855-1.359A4.7,4.7,0,0,0,12.8-6.57a4.633,4.633,0,0,0-.306-1.7,3.92,3.92,0,0,0-.855-1.341,3.95,3.95,0,0,0-1.3-.873A4.15,4.15,0,0,0,8.712-10.8H3.4v8.514ZM19.35,0V-13.086h2.286V0ZM32.274,0a6.187,6.187,0,0,1-2.529-.513,6.282,6.282,0,0,1-2.016-1.4A6.342,6.342,0,0,1,26.4-4.032a7.224,7.224,0,0,1-.477-2.646A6.993,6.993,0,0,1,26.4-9.306a5.836,5.836,0,0,1,1.332-2.025,6,6,0,0,1,2.016-1.3,6.818,6.818,0,0,1,2.529-.459h7.092V-10.8H32.274a4.15,4.15,0,0,0-1.629.315,3.85,3.85,0,0,0-1.287.873,4.011,4.011,0,0,0-.846,1.332,4.613,4.613,0,0,0-.306,1.71,4.7,4.7,0,0,0,.306,1.71A4.073,4.073,0,0,0,29.358-3.5a3.9,3.9,0,0,0,1.287.891,4.05,4.05,0,0,0,1.629.324h5.6v-3.4h-5.9V-7.614h8.208V0ZM48.492-3.636V-5.85h5.256a2.523,2.523,0,0,0,1.881-.684,2.452,2.452,0,0,0,.675-1.8,2.414,2.414,0,0,0-.675-1.8,2.563,2.563,0,0,0-1.881-.666h-6.93V0H44.55V-13.086h9.2a5.756,5.756,0,0,1,2.025.333,4.206,4.206,0,0,1,1.5.936,4,4,0,0,1,.936,1.467,5.5,5.5,0,0,1,.324,1.944,5.525,5.525,0,0,1-.324,1.935,4.249,4.249,0,0,1-.936,1.5,4.218,4.218,0,0,1-1.5.981,5.49,5.49,0,0,1-2.025.351ZM74.574,0,71.262-3.636h-4.9V-5.652H71.82a2.439,2.439,0,0,0,1.872-.675,2.76,2.76,0,0,0,.63-1.953,2.5,2.5,0,0,0-.657-1.9A2.58,2.58,0,0,0,71.82-10.8H64.692V0H62.424V-13.086h9.4a5.626,5.626,0,0,1,2,.333,4.1,4.1,0,0,1,1.494.954,4.145,4.145,0,0,1,.936,1.5,5.711,5.711,0,0,1,.324,1.98,4.98,4.98,0,0,1-.711,2.745,3.974,3.974,0,0,1-1.989,1.593L77.814,0ZM86.94,0a6.187,6.187,0,0,1-2.529-.513,6.282,6.282,0,0,1-2.016-1.4,6.342,6.342,0,0,1-1.332-2.115,7.224,7.224,0,0,1-.477-2.646,6.993,6.993,0,0,1,.477-2.628A5.836,5.836,0,0,1,82.4-11.331a6,6,0,0,1,2.016-1.3,6.818,6.818,0,0,1,2.529-.459h3.186a6.991,6.991,0,0,1,2.6.468A5.907,5.907,0,0,1,94.752-11.3a5.907,5.907,0,0,1,1.314,2.025,6.991,6.991,0,0,1,.468,2.6,7.224,7.224,0,0,1-.477,2.646,6.342,6.342,0,0,1-1.332,2.115A6.255,6.255,0,0,1,92.7-.513,6.341,6.341,0,0,1,90.126,0Zm3.186-2.286a4.16,4.16,0,0,0,1.656-.324A3.973,3.973,0,0,0,93.087-3.5a4,4,0,0,0,.855-1.359,4.7,4.7,0,0,0,.306-1.71,4.633,4.633,0,0,0-.306-1.7,3.92,3.92,0,0,0-.855-1.341,3.927,3.927,0,0,0-1.305-.873,4.264,4.264,0,0,0-1.656-.315H86.94a4.15,4.15,0,0,0-1.629.315,3.85,3.85,0,0,0-1.287.873,4.011,4.011,0,0,0-.846,1.332,4.613,4.613,0,0,0-.306,1.71,4.7,4.7,0,0,0,.306,1.71A4.073,4.073,0,0,0,84.024-3.5a3.9,3.9,0,0,0,1.287.891,4.05,4.05,0,0,0,1.629.324Z" transform="translate(509 271)" fill="#1c458d"/><path d="M7.11,0A6.187,6.187,0,0,1,4.581-.513a6.282,6.282,0,0,1-2.016-1.4A6.342,6.342,0,0,1,1.233-4.032,7.224,7.224,0,0,1,.756-6.678a6.993,6.993,0,0,1,.477-2.628,5.836,5.836,0,0,1,1.332-2.025,6,6,0,0,1,2.016-1.3,6.818,6.818,0,0,1,2.529-.459H14.2V-10.8H7.11a4.15,4.15,0,0,0-1.629.315,3.85,3.85,0,0,0-1.287.873A4.011,4.011,0,0,0,3.348-8.28a4.613,4.613,0,0,0-.306,1.71,4.7,4.7,0,0,0,.306,1.71A4.073,4.073,0,0,0,4.194-3.5a3.9,3.9,0,0,0,1.287.891,4.05,4.05,0,0,0,1.629.324H14.2V0Z" transform="translate(608 271)" fill="#0094d9"/></g></g></svg>